<mxfile host="app.diagrams.net" modified="2023-10-29T11:06:47.684Z" agent="Mozilla/5.0 (X11; Linux x86_64; rv:109.0) Gecko/20100101 Firefox/119.0" etag="QknsOarPw9XtzwCmMIy4" version="22.0.8" type="device">
  <diagram name="Page-1" id="AVlBIYrT10YbWhJIoWxe">
    <mxGraphModel dx="1562" dy="864" grid="0" gridSize="10" guides="1" tooltips="1" connect="1" arrows="1" fold="1" page="1" pageScale="1" pageWidth="1000" pageHeight="1000" background="#2B2B2B" math="1" shadow="0">
      <root>
        <mxCell id="0" />
        <mxCell id="1" parent="0" />
        <mxCell id="0EyizCqkSyoqgCZxlWm4-1" value="&amp;nbsp;" style="text;whiteSpace=wrap;html=1;" parent="1" vertex="1">
          <mxGeometry x="423" y="153.25" width="40" height="40" as="geometry" />
        </mxCell>
        <mxCell id="D41jF3NzaPIrUnGY29Pn-1" value="" style="rounded=1;whiteSpace=wrap;html=1;strokeColor=#CCCCCC;fillColor=none;fontColor=#242424;" parent="1" vertex="1">
          <mxGeometry x="392" y="97.25" width="140" height="111.5" as="geometry" />
        </mxCell>
        <mxCell id="D41jF3NzaPIrUnGY29Pn-3" value="" style="rounded=1;whiteSpace=wrap;html=1;strokeColor=#CCCCCC;fillColor=none;fontColor=#242424;" parent="1" vertex="1">
          <mxGeometry x="378.5" y="256" width="167" height="307" as="geometry" />
        </mxCell>
        <mxCell id="D41jF3NzaPIrUnGY29Pn-5" value="" style="rounded=1;whiteSpace=wrap;html=1;strokeColor=#CCCCCC;fillColor=none;fontColor=#242424;" parent="1" vertex="1">
          <mxGeometry x="41" y="184" width="100" height="43" as="geometry" />
        </mxCell>
        <mxCell id="D41jF3NzaPIrUnGY29Pn-6" value="" style="rounded=1;whiteSpace=wrap;html=1;strokeColor=#CCCCCC;fillColor=none;fontColor=#242424;dashed=1;" parent="1" vertex="1">
          <mxGeometry x="41" y="261" width="100" height="43" as="geometry" />
        </mxCell>
        <mxCell id="D41jF3NzaPIrUnGY29Pn-7" value="" style="rounded=1;whiteSpace=wrap;html=1;strokeColor=#FFD966;fillColor=none;fontColor=#000000;" parent="1" vertex="1">
          <mxGeometry x="41" y="338" width="100" height="43" as="geometry" />
        </mxCell>
        <mxCell id="D41jF3NzaPIrUnGY29Pn-8" value="" style="rounded=1;whiteSpace=wrap;html=1;strokeColor=#C9C9C9;fillColor=none;fontColor=#242424;" parent="1" vertex="1">
          <mxGeometry x="615" y="84" width="339" height="489" as="geometry" />
        </mxCell>
        <mxCell id="D41jF3NzaPIrUnGY29Pn-9" value="&lt;h1&gt;System Architecture&lt;/h1&gt;" style="text;html=1;strokeColor=none;fillColor=none;spacing=5;spacingTop=-20;whiteSpace=wrap;overflow=hidden;rounded=0;fontFamily=DM Mono Medium;fontSource=https%3A%2F%2Ffonts.googleapis.com%2Fcss%3Ffamily%3DDM%2BMono%2BMedium;fontColor=#C9C9C9;" parent="1" vertex="1">
          <mxGeometry x="39" y="38" width="190" height="69" as="geometry" />
        </mxCell>
        <mxCell id="D41jF3NzaPIrUnGY29Pn-10" value="&lt;div&gt;INIT&lt;/div&gt;" style="text;html=1;strokeColor=none;fillColor=none;align=center;verticalAlign=middle;whiteSpace=wrap;rounded=0;fontColor=#C9C9C9;fontFamily=DM Mono Medium;fontSource=https%3A%2F%2Ffonts.googleapis.com%2Fcss%3Ffamily%3DDM%2BMono%2BMedium;" parent="1" vertex="1">
          <mxGeometry x="425.5" y="109.25" width="67" height="28" as="geometry" />
        </mxCell>
        <mxCell id="D41jF3NzaPIrUnGY29Pn-12" value="" style="endArrow=oval;html=1;strokeColor=#CCCCCC;startArrow=none;startFill=0;endFill=0;rounded=0;strokeWidth=2;fontColor=#242424;endSize=6;startSize=9;" parent="1" edge="1">
          <mxGeometry width="50" height="50" relative="1" as="geometry">
            <mxPoint x="156" y="205.07999999999998" as="sourcePoint" />
            <mxPoint x="207" y="205.07999999999998" as="targetPoint" />
          </mxGeometry>
        </mxCell>
        <mxCell id="D41jF3NzaPIrUnGY29Pn-15" value="CPU" style="text;html=1;strokeColor=none;fillColor=none;align=center;verticalAlign=middle;whiteSpace=wrap;rounded=0;fontColor=#C9C9C9;fontFamily=DM Mono Medium;fontSource=https%3A%2F%2Ffonts.googleapis.com%2Fcss%3Ffamily%3DDM%2BMono%2BMedium;" parent="1" vertex="1">
          <mxGeometry x="428.5" y="264" width="67" height="28" as="geometry" />
        </mxCell>
        <mxCell id="D41jF3NzaPIrUnGY29Pn-16" value="&lt;div&gt;NAV&lt;/div&gt;" style="text;html=1;strokeColor=none;fillColor=none;align=center;verticalAlign=middle;whiteSpace=wrap;rounded=0;fontColor=#C9C9C9;fontFamily=DM Mono Medium;fontSource=https%3A%2F%2Ffonts.googleapis.com%2Fcss%3Ffamily%3DDM%2BMono%2BMedium;" parent="1" vertex="1">
          <mxGeometry x="751" y="97.25" width="67" height="28" as="geometry" />
        </mxCell>
        <mxCell id="D41jF3NzaPIrUnGY29Pn-17" value="&lt;div&gt;INIT&lt;/div&gt;" style="text;html=1;strokeColor=none;fillColor=none;align=center;verticalAlign=middle;whiteSpace=wrap;rounded=0;fontColor=#C9C9C9;fontFamily=DM Mono Medium;fontSource=https%3A%2F%2Ffonts.googleapis.com%2Fcss%3Ffamily%3DDM%2BMono%2BMedium;" parent="1" vertex="1">
          <mxGeometry x="202" y="268.5" width="67" height="28" as="geometry" />
        </mxCell>
        <mxCell id="D41jF3NzaPIrUnGY29Pn-18" value="Main Component" style="text;html=1;strokeColor=none;fillColor=none;align=center;verticalAlign=middle;whiteSpace=wrap;rounded=0;fontColor=#C9C9C9;fontFamily=DM Mono Medium;fontSource=https%3A%2F%2Ffonts.googleapis.com%2Fcss%3Ffamily%3DDM%2BMono%2BMedium;" parent="1" vertex="1">
          <mxGeometry x="219.5" y="187.75" width="72" height="35.5" as="geometry" />
        </mxCell>
        <mxCell id="D41jF3NzaPIrUnGY29Pn-19" value="FRAM Interaction" style="text;html=1;strokeColor=none;fillColor=none;align=center;verticalAlign=middle;whiteSpace=wrap;rounded=0;fontColor=#C9C9C9;fontFamily=DM Mono Medium;fontSource=https%3A%2F%2Ffonts.googleapis.com%2Fcss%3Ffamily%3DDM%2BMono%2BMedium;" parent="1" vertex="1">
          <mxGeometry x="212" y="337.25" width="87" height="44.5" as="geometry" />
        </mxCell>
        <mxCell id="2F1xq4ktJMYPn1vli0of-4" value="" style="endArrow=oval;html=1;strokeColor=#CCCCCC;startArrow=none;startFill=0;endFill=0;rounded=0;strokeWidth=2;fontColor=#242424;endSize=6;startSize=9;" edge="1" parent="1">
          <mxGeometry width="50" height="50" relative="1" as="geometry">
            <mxPoint x="154" y="282" as="sourcePoint" />
            <mxPoint x="205" y="282" as="targetPoint" />
          </mxGeometry>
        </mxCell>
        <mxCell id="2F1xq4ktJMYPn1vli0of-5" value="" style="endArrow=oval;html=1;strokeColor=#CCCCCC;startArrow=none;startFill=0;endFill=0;rounded=0;strokeWidth=2;fontColor=#242424;endSize=6;startSize=9;" edge="1" parent="1">
          <mxGeometry width="50" height="50" relative="1" as="geometry">
            <mxPoint x="155" y="359" as="sourcePoint" />
            <mxPoint x="206" y="359" as="targetPoint" />
          </mxGeometry>
        </mxCell>
        <mxCell id="2F1xq4ktJMYPn1vli0of-8" value="&lt;div style=&quot;font-size: 14px;&quot;&gt;&lt;b style=&quot;font-size: 14px;&quot;&gt;&lt;i style=&quot;font-size: 14px;&quot;&gt;Declarations:&lt;/i&gt;&lt;/b&gt;&lt;/div&gt;" style="text;html=1;strokeColor=none;fillColor=none;align=center;verticalAlign=middle;whiteSpace=wrap;rounded=0;fontColor=#C9C9C9;fontFamily=DM Mono Medium;fontSource=https%3A%2F%2Ffonts.googleapis.com%2Fcss%3Ffamily%3DDM%2BMono%2BMedium;fontSize=14;" vertex="1" parent="1">
          <mxGeometry x="33" y="152" width="136" height="28" as="geometry" />
        </mxCell>
        <mxCell id="2F1xq4ktJMYPn1vli0of-10" value="" style="group" vertex="1" connectable="0" parent="1">
          <mxGeometry x="412" y="645" width="100" height="43" as="geometry" />
        </mxCell>
        <mxCell id="2F1xq4ktJMYPn1vli0of-2" value="Recovery" style="text;html=1;strokeColor=none;fillColor=none;align=center;verticalAlign=middle;whiteSpace=wrap;rounded=0;fontColor=#C9C9C9;fontFamily=DM Mono Medium;fontSource=https%3A%2F%2Ffonts.googleapis.com%2Fcss%3Ffamily%3DDM%2BMono%2BMedium;" vertex="1" parent="2F1xq4ktJMYPn1vli0of-10">
          <mxGeometry x="16.5" y="7.5" width="67" height="28" as="geometry" />
        </mxCell>
        <mxCell id="2F1xq4ktJMYPn1vli0of-12" style="edgeStyle=orthogonalEdgeStyle;rounded=0;orthogonalLoop=1;jettySize=auto;html=1;strokeColor=#C9C9C9;" edge="1" parent="2F1xq4ktJMYPn1vli0of-10" source="2F1xq4ktJMYPn1vli0of-9">
          <mxGeometry relative="1" as="geometry">
            <mxPoint x="50" y="109" as="targetPoint" />
          </mxGeometry>
        </mxCell>
        <mxCell id="2F1xq4ktJMYPn1vli0of-13" style="edgeStyle=orthogonalEdgeStyle;rounded=0;orthogonalLoop=1;jettySize=auto;html=1;strokeColor=#D1D1D1;endArrow=oval;endFill=0;" edge="1" parent="2F1xq4ktJMYPn1vli0of-10" source="2F1xq4ktJMYPn1vli0of-9">
          <mxGeometry relative="1" as="geometry">
            <mxPoint x="50" y="-58" as="targetPoint" />
          </mxGeometry>
        </mxCell>
        <mxCell id="2F1xq4ktJMYPn1vli0of-9" value="" style="rounded=1;whiteSpace=wrap;html=1;strokeColor=#FFD966;fillColor=none;fontColor=#000000;" vertex="1" parent="2F1xq4ktJMYPn1vli0of-10">
          <mxGeometry width="100" height="43" as="geometry" />
        </mxCell>
      </root>
    </mxGraphModel>
  </diagram>
</mxfile>
